<svg width="25" height="38" viewBox="0 0 25 38" fill="none" xmlns="http://www.w3.org/2000/svg">
<path d="M24.2175 4.1024C23.8932 3.60576 23.4194 3.5915 22.8795 3.57524C22.8183 3.5734 22.7563 3.57154 22.6936 3.56894C22.6458 3.56674 22.5931 3.56759 22.538 3.56847C22.319 3.57199 22.0629 3.5761 21.9339 3.39213C21.7843 3.17884 21.7985 2.76664 21.8102 2.42636C21.8139 2.31883 21.8173 2.21842 21.8153 2.1338C21.7943 1.34333 21.7504 0.503638 21.4453 0.222931C21.2152 0.0123206 20.5268 0.0414968 19.892 0.0684052C19.6862 0.0771282 19.486 0.0856094 19.3089 0.0856094H5.79596C5.52389 0.0856094 5.23869 0.0634545 4.95847 0.041687C4.41245 -0.000728134 3.88533 -0.0416747 3.511 0.0856094C2.96775 0.271237 2.93096 1.24668 2.89633 2.1652L2.89446 2.21461C2.86538 2.97289 2.67746 3.558 2.05465 3.49906C1.33029 3.43162 0.609497 3.41036 0.281987 4.06595C-0.10481 4.84162 -0.0250374 5.65358 0.117847 7.10793C0.138258 7.31568 0.159956 7.53653 0.181766 7.77225H24.4264C24.4403 7.59996 24.455 7.42987 24.4696 7.26254C24.5831 5.95407 24.682 4.81402 24.2175 4.1024Z" fill="#8047F8"/>
<path fill-rule="evenodd" clip-rule="evenodd" d="M2.06987 8.91645C2.44852 14.0949 2.82304 19.2793 3.19757 24.4637L3.1978 24.4669C3.40115 27.2818 3.60451 30.0968 3.80853 32.9109H4.58212C4.63483 33.3514 4.69515 33.8952 4.75874 34.4686C4.88783 35.6324 5.03044 36.9182 5.15034 37.7083H5.2359C6.02387 37.417 11.4712 35.0643 11.4736 25.6974C11.4726 25.6707 11.4735 25.644 11.4762 25.6175H10.1304C10.0653 25.6169 10.0021 25.5949 9.9507 25.555C9.89927 25.515 9.86241 25.4593 9.84577 25.3963C9.71463 25.069 9.60888 24.732 9.52948 24.3885C8.73777 24.8403 8.10906 25.5302 7.73296 26.3599C7.37594 25.5102 7.32921 24.5621 7.60093 23.6814C7.87266 22.8007 8.44556 22.0434 9.21952 21.5419C9.22949 18.8086 10.2423 16.1738 12.0661 14.1362L12.0946 14.1109C12.1476 14.0646 12.2155 14.0388 12.2859 14.0383C12.3266 14.0386 12.3668 14.0474 12.4039 14.0641C12.4415 14.0809 12.4751 14.1055 12.5026 14.1362C14.3478 16.1765 15.3552 18.8367 15.3239 21.5861C16.1123 22.0737 16.6969 22.8305 16.9691 23.7159C17.2413 24.6014 17.1827 25.5554 16.8042 26.401C16.4301 25.57 15.8008 24.8795 15.0076 24.4296C14.9592 24.7625 14.8699 25.0883 14.7419 25.3995C14.6977 25.5322 14.6091 25.6175 14.5205 25.6175H13.0853C13.0876 25.6334 13.0892 25.6493 13.0901 25.6653L13.0907 25.669V25.6768C13.0912 25.6906 13.0912 25.7044 13.0907 25.7182C13.1104 35.354 18.902 37.5411 19.3902 37.7083H19.5572C19.5998 36.9494 19.7386 35.9021 19.8739 34.8812C19.9671 34.1776 20.0587 33.4865 20.116 32.9109H20.8985C21.149 29.3663 21.4066 25.8316 21.6642 22.2968L21.6644 22.2949L21.6645 22.2938C21.994 17.7724 22.3235 13.2509 22.6381 8.70833H2.11998C2.06092 8.71999 2.06495 8.81761 2.06987 8.91645ZM12.2859 14.0383L12.2844 14.0383H12.2875L12.2859 14.0383Z" fill="#8047F8"/>
</svg>
